<?xml version="1.0" standalone="no"?>
<!DOCTYPE svg PUBLIC "-//W3C//DTD SVG 20010904//EN"
 "http://www.w3.org/TR/2001/REC-SVG-20010904/DTD/svg10.dtd">
<svg version="1.0" xmlns="http://www.w3.org/2000/svg"
 width="1024.000000pt" height="1024.000000pt" viewBox="0 0 1024.000000 1024.000000"
 preserveAspectRatio="xMidYMid meet">

<g transform="translate(0.000000,1024.000000) scale(0.100000,-0.100000)"
fill="#000000" stroke="none">
<path d="M4763 8949 c-391 -30 -856 -153 -1214 -320 -81 -38 -149 -69 -152
-69 -2 0 -81 -45 -175 -99 -327 -189 -516 -333 -778 -595 -323 -324 -522 -602
-738 -1033 -184 -367 -305 -795 -360 -1268 -34 -287 -38 -362 -26 -539 6 -94
13 -187 15 -206 3 -19 10 -98 15 -175 11 -157 23 -217 105 -530 98 -377 201
-618 421 -990 168 -283 391 -564 625 -789 169 -162 564 -461 653 -496 12 -4
45 -24 74 -43 101 -66 388 -199 597 -275 272 -99 515 -156 825 -193 233 -28
660 -31 895 -6 384 42 721 129 1027 266 73 33 157 69 186 80 62 25 222 111
342 184 243 150 530 376 695 548 178 187 372 427 478 594 21 33 61 95 88 138
89 140 204 378 294 607 111 284 167 509 220 885 77 540 51 899 -111 1550 -79
316 -295 799 -485 1080 -154 230 -305 414 -522 634 -217 221 -493 434 -737
569 -298 166 -334 183 -595 274 -335 116 -557 171 -800 197 -55 6 -140 15
-190 21 -105 12 -511 11 -672 -1z m742 -559 c306 -37 449 -65 580 -115 33 -13
105 -37 160 -55 55 -18 196 -80 313 -137 237 -117 453 -253 622 -392 58 -48
115 -93 126 -101 12 -8 63 -62 114 -120 51 -58 124 -136 161 -175 37 -38 106
-128 155 -200 48 -71 97 -143 110 -160 84 -114 260 -461 315 -624 125 -369
180 -624 210 -966 26 -292 -28 -797 -117 -1105 -72 -248 -213 -584 -320 -763
-85 -141 -268 -409 -335 -488 -231 -275 -489 -497 -784 -674 -144 -87 -421
-224 -530 -262 -114 -40 -363 -111 -465 -133 -125 -27 -409 -67 -535 -75 -182
-13 -598 23 -835 71 -601 122 -1147 405 -1579 820 -259 248 -532 617 -639 859
-17 39 -42 91 -56 116 -97 172 -240 631 -265 849 -55 469 -62 627 -36 852 42
376 96 646 169 848 60 167 159 390 191 435 12 17 30 48 40 70 10 22 33 63 51
92 18 29 45 75 59 103 71 140 301 410 519 610 305 278 708 516 1121 662 290
103 395 127 695 162 182 22 592 20 785 -4z"/>
<path d="M4980 7429 c-244 -28 -506 -153 -661 -315 -80 -84 -119 -140 -174
-253 -99 -200 -125 -390 -86 -623 23 -132 31 -156 68 -205 33 -43 37 -35 47
82 12 132 33 203 83 288 26 42 53 77 61 77 8 0 39 -8 70 -17 47 -14 96 -18
272 -17 304 0 355 11 575 119 161 80 175 89 252 167 45 46 98 110 117 142 21
35 37 53 40 45 2 -8 10 -32 17 -54 21 -72 95 -220 148 -299 29 -42 91 -120
137 -172 47 -53 91 -105 99 -118 11 -16 45 -192 45 -231 0 -3 11 -5 25 -5 21
0 27 8 44 65 45 144 53 407 17 567 -54 244 -227 454 -410 498 -46 11 -60 19
-77 46 -53 87 -195 171 -345 204 -95 21 -229 24 -364 9z"/>
<path d="M5525 6585 c-98 -100 -188 -156 -330 -208 -161 -58 -200 -67 -338
-77 -178 -13 -391 7 -489 45 -38 15 -68 -133 -68 -336 l0 -119 -49 0 c-39 0
-56 6 -86 30 -21 17 -43 29 -49 27 -23 -8 -55 -70 -61 -120 -10 -80 8 -157 55
-232 63 -99 141 -155 217 -155 16 0 23 -16 42 -96 30 -122 82 -227 165 -329
83 -104 127 -144 206 -195 158 -99 251 -125 421 -118 l110 5 125 62 c116 58
132 69 229 166 90 90 110 116 153 203 27 55 65 145 83 200 33 101 33 101 70
107 54 9 139 64 171 110 35 51 78 183 78 241 0 44 -19 104 -42 131 -9 11 -15
10 -32 -6 -16 -15 -42 -22 -91 -27 l-70 -6 3 116 c5 152 0 175 -54 238 -100
118 -199 257 -238 335 -22 46 -45 82 -51 81 -5 -1 -42 -34 -80 -73z"/>
<path d="M4149 4552 c-464 -234 -578 -304 -723 -443 -152 -145 -270 -328 -315
-489 -22 -81 -54 -240 -49 -245 16 -16 629 -206 823 -254 320 -81 834 -141
1210 -142 258 0 457 14 725 51 113 15 230 31 260 35 103 13 288 54 427 94 306
89 376 113 659 221 l22 9 -29 123 c-51 214 -161 404 -336 582 -123 124 -308
244 -613 395 -80 40 -202 102 -273 137 -70 36 -132 64 -138 62 -6 -2 -25 -42
-43 -88 -60 -160 -151 -272 -302 -370 -104 -68 -179 -90 -308 -90 -120 0 -201
18 -311 67 -188 85 -303 218 -361 421 -13 43 -23 62 -34 62 -9 0 -140 -62
-291 -138z"/>
</g>
</svg>
